<svg width="50" height="50" viewBox="0 0 50 50" fill="none" xmlns="http://www.w3.org/2000/svg">
<mask id="path-1-inside-1_257_124" fill="white">
<path d="M25.6 23.4006C25.7833 23.4006 25.954 23.3296 26.112 23.1876C26.2706 23.0463 26.3666 22.8673 26.4 22.6506C26.4333 22.4339 26.5126 22.2423 26.638 22.0756C26.7626 21.9089 26.95 21.7006 27.2 21.4506C27.7 20.9506 28.0333 20.5463 28.2 20.2376C28.3666 19.9296 28.45 19.5673 28.45 19.1506C28.45 18.4006 28.1873 17.7883 27.662 17.3136C27.1373 16.8383 26.45 16.6006 25.6 16.6006C25.05 16.6006 24.5543 16.7296 24.113 16.9876C23.671 17.2463 23.3166 17.6006 23.05 18.0506C22.95 18.2173 22.9376 18.3923 23.013 18.5756C23.0876 18.7589 23.225 18.8923 23.425 18.9756C23.5916 19.0423 23.7666 19.0423 23.95 18.9756C24.1333 18.9089 24.2916 18.7839 24.425 18.6006C24.575 18.4006 24.75 18.2506 24.95 18.1506C25.15 18.0506 25.3666 18.0006 25.6 18.0006C26 18.0006 26.325 18.1129 26.575 18.3376C26.825 18.5629 26.95 18.8673 26.95 19.2506C26.95 19.4839 26.8833 19.7046 26.75 19.9126C26.6166 20.1213 26.3833 20.3839 26.05 20.7006C25.6 21.0839 25.3 21.3923 25.15 21.6256C25 21.8589 24.9083 22.2006 24.875 22.6506C24.8583 22.8506 24.921 23.0256 25.063 23.1756C25.2043 23.3256 25.3833 23.4006 25.6 23.4006ZM25.6 26.6006C25.8833 26.6006 26.1293 26.4966 26.338 26.2886C26.546 26.0799 26.65 25.8339 26.65 25.5506C26.65 25.2673 26.546 25.0213 26.338 24.8126C26.1293 24.6046 25.8833 24.5006 25.6 24.5006C25.3166 24.5006 25.071 24.6046 24.863 24.8126C24.6543 25.0213 24.55 25.2673 24.55 25.5506C24.55 25.8339 24.6543 26.0799 24.863 26.2886C25.071 26.4966 25.3166 26.6006 25.6 26.6006ZM19.6 29.6006C19.05 29.6006 18.5793 29.4049 18.188 29.0136C17.796 28.6216 17.6 28.1506 17.6 27.6006V15.6006C17.6 15.0506 17.796 14.5796 18.188 14.1876C18.5793 13.7963 19.05 13.6006 19.6 13.6006H31.6C32.15 13.6006 32.621 13.7963 33.013 14.1876C33.4043 14.5796 33.6 15.0506 33.6 15.6006V27.6006C33.6 28.1506 33.4043 28.6216 33.013 29.0136C32.621 29.4049 32.15 29.6006 31.6 29.6006H19.6ZM19.6 27.6006H31.6V15.6006H19.6V27.6006ZM15.6 33.6006C15.05 33.6006 14.5793 33.4049 14.188 33.0136C13.796 32.6216 13.6 32.1506 13.6 31.6006V18.6006C13.6 18.3173 13.696 18.0796 13.888 17.8876C14.0793 17.6963 14.3166 17.6006 14.6 17.6006C14.8833 17.6006 15.121 17.6963 15.313 17.8876C15.5043 18.0796 15.6 18.3173 15.6 18.6006V31.6006H28.6C28.8833 31.6006 29.1206 31.6966 29.312 31.8886C29.504 32.0799 29.6 32.3173 29.6 32.6006C29.6 32.8839 29.504 33.1213 29.312 33.3126C29.1206 33.5046 28.8833 33.6006 28.6 33.6006H15.6Z"/>
</mask>
<path d="M25.6 23.4006C25.7833 23.4006 25.954 23.3296 26.112 23.1876C26.2706 23.0463 26.3666 22.8673 26.4 22.6506C26.4333 22.4339 26.5126 22.2423 26.638 22.0756C26.7626 21.9089 26.95 21.7006 27.2 21.4506C27.7 20.9506 28.0333 20.5463 28.2 20.2376C28.3666 19.9296 28.45 19.5673 28.45 19.1506C28.45 18.4006 28.1873 17.7883 27.662 17.3136C27.1373 16.8383 26.45 16.6006 25.6 16.6006C25.05 16.6006 24.5543 16.7296 24.113 16.9876C23.671 17.2463 23.3166 17.6006 23.05 18.0506C22.95 18.2173 22.9376 18.3923 23.013 18.5756C23.0876 18.7589 23.225 18.8923 23.425 18.9756C23.5916 19.0423 23.7666 19.0423 23.95 18.9756C24.1333 18.9089 24.2916 18.7839 24.425 18.6006C24.575 18.4006 24.75 18.2506 24.95 18.1506C25.15 18.0506 25.3666 18.0006 25.6 18.0006C26 18.0006 26.325 18.1129 26.575 18.3376C26.825 18.5629 26.95 18.8673 26.95 19.2506C26.95 19.4839 26.8833 19.7046 26.75 19.9126C26.6166 20.1213 26.3833 20.3839 26.05 20.7006C25.6 21.0839 25.3 21.3923 25.15 21.6256C25 21.8589 24.9083 22.2006 24.875 22.6506C24.8583 22.8506 24.921 23.0256 25.063 23.1756C25.2043 23.3256 25.3833 23.4006 25.6 23.4006ZM25.6 26.6006C25.8833 26.6006 26.1293 26.4966 26.338 26.2886C26.546 26.0799 26.65 25.8339 26.65 25.5506C26.65 25.2673 26.546 25.0213 26.338 24.8126C26.1293 24.6046 25.8833 24.5006 25.6 24.5006C25.3166 24.5006 25.071 24.6046 24.863 24.8126C24.6543 25.0213 24.55 25.2673 24.55 25.5506C24.55 25.8339 24.6543 26.0799 24.863 26.2886C25.071 26.4966 25.3166 26.6006 25.6 26.6006ZM19.6 29.6006C19.05 29.6006 18.5793 29.4049 18.188 29.0136C17.796 28.6216 17.6 28.1506 17.6 27.6006V15.6006C17.6 15.0506 17.796 14.5796 18.188 14.1876C18.5793 13.7963 19.05 13.6006 19.6 13.6006H31.6C32.15 13.6006 32.621 13.7963 33.013 14.1876C33.4043 14.5796 33.6 15.0506 33.6 15.6006V27.6006C33.6 28.1506 33.4043 28.6216 33.013 29.0136C32.621 29.4049 32.15 29.6006 31.6 29.6006H19.6ZM19.6 27.6006H31.6V15.6006H19.6V27.6006ZM15.6 33.6006C15.05 33.6006 14.5793 33.4049 14.188 33.0136C13.796 32.6216 13.6 32.1506 13.6 31.6006V18.6006C13.6 18.3173 13.696 18.0796 13.888 17.8876C14.0793 17.6963 14.3166 17.6006 14.6 17.6006C14.8833 17.6006 15.121 17.6963 15.313 17.8876C15.5043 18.0796 15.6 18.3173 15.6 18.6006V31.6006H28.6C28.8833 31.6006 29.1206 31.6966 29.312 31.8886C29.504 32.0799 29.6 32.3173 29.6 32.6006C29.6 32.8839 29.504 33.1213 29.312 33.3126C29.1206 33.5046 28.8833 33.6006 28.6 33.6006H15.6Z" fill="black"/>
<path d="M26.112 23.1876L22.9193 19.6033L22.9114 19.6104L22.9034 19.6175L26.112 23.1876ZM26.638 22.0756L30.4743 24.9605L30.4817 24.9507L26.638 22.0756ZM28.2 20.2376L23.9784 17.9532L23.9764 17.957L28.2 20.2376ZM27.662 17.3136L24.4392 20.8708L24.444 20.8751L27.662 17.3136ZM24.113 16.9876L21.6905 12.8437L21.6886 12.8449L24.113 16.9876ZM23.05 18.0506L27.1659 20.5202L27.1727 20.5089L27.1794 20.4976L23.05 18.0506ZM23.013 18.5756L27.4584 16.7651L27.4556 16.7582L27.4528 16.7512L23.013 18.5756ZM23.425 18.9756L21.5788 23.4064L21.6105 23.4195L21.6423 23.4323L23.425 18.9756ZM24.425 18.6006L20.585 15.7206L20.5638 15.7488L20.543 15.7774L24.425 18.6006ZM26.575 18.3376L29.7886 14.7721L29.7834 14.7674L26.575 18.3376ZM26.75 19.9126L22.709 17.3222L22.7052 17.3281L26.75 19.9126ZM26.05 20.7006L29.1626 24.3546L29.2617 24.2702L29.356 24.1806L26.05 20.7006ZM24.875 22.6506L29.6584 23.0492L29.6602 23.0272L29.6619 23.0052L24.875 22.6506ZM25.063 23.1756L28.5565 19.8839L28.5488 19.8757L25.063 23.1756ZM26.338 26.2886L29.7267 29.6881L29.7321 29.6827L29.7375 29.6773L26.338 26.2886ZM26.338 24.8126L29.7375 21.4239L29.7321 21.4185L29.7267 21.413L26.338 24.8126ZM33.013 14.1876L36.41 10.7964L36.4042 10.7906L33.013 14.1876ZM33.013 29.0136L36.4042 32.4106L36.41 32.4048L33.013 29.0136ZM19.6 27.6006H14.8V32.4006H19.6V27.6006ZM31.6 27.6006V32.4006H36.4V27.6006H31.6ZM31.6 15.6006H36.4V10.8006H31.6V15.6006ZM19.6 15.6006V10.8006H14.8V15.6006H19.6ZM15.313 17.8876L18.713 14.4994L18.7071 14.4935L18.7012 14.4876L15.313 17.8876ZM15.6 31.6006H10.8V36.4006H15.6V31.6006ZM29.312 31.8886L25.912 35.2768L25.9179 35.2827L25.9238 35.2886L29.312 31.8886ZM29.312 33.3126L25.9238 29.9126L25.9179 29.9185L25.912 29.9244L29.312 33.3126ZM25.6 28.2006C27.154 28.2006 28.4303 27.5577 29.3205 26.7576L22.9034 19.6175C23.4776 19.1015 24.4126 18.6006 25.6 18.6006V28.2006ZM29.3047 26.7718C30.3248 25.8631 30.947 24.662 31.1442 23.3805L21.6558 21.9207C21.7863 21.0725 22.2165 20.2294 22.9193 19.6033L29.3047 26.7718ZM31.1442 23.3805C31.0635 23.9046 30.8492 24.462 30.4743 24.9605L22.8017 19.1907C22.1761 20.0225 21.8031 20.9633 21.6558 21.9207L31.1442 23.3805ZM30.4817 24.9507C30.4557 24.9854 30.4383 25.0065 30.4331 25.0128C30.4275 25.0195 30.4296 25.0167 30.4412 25.0038C30.4658 24.9765 30.5144 24.9244 30.5941 24.8447L23.8059 18.0565C23.4889 18.3734 23.1183 18.7673 22.7943 19.2005L30.4817 24.9507ZM30.5941 24.8447C31.1603 24.2784 31.9102 23.469 32.4236 22.5182L23.9764 17.957C24.0413 17.8367 24.0936 17.7599 24.1137 17.7311C24.1354 17.7002 24.1407 17.6955 24.1213 17.719C24.1027 17.7416 24.0682 17.7819 24.0139 17.8408C23.96 17.8993 23.8913 17.971 23.8059 18.0565L30.5941 24.8447ZM32.4215 22.522C33.0338 21.3905 33.25 20.2138 33.25 19.1506H23.65C23.65 18.9207 23.6995 18.4686 23.9784 17.9532L32.4215 22.522ZM33.25 19.1506C33.25 17.134 32.478 15.196 30.88 13.7521L24.444 20.8751C24.226 20.6781 24 20.3902 23.8417 20.0211C23.6862 19.6586 23.65 19.3445 23.65 19.1506H33.25ZM30.8847 13.7564C29.3068 12.3268 27.3892 11.8006 25.6 11.8006V21.4006C25.5792 21.4006 25.4223 21.3976 25.1844 21.3153C24.9333 21.2285 24.6698 21.0797 24.4392 20.8708L30.8847 13.7564ZM25.6 11.8006C24.2654 11.8006 22.9225 12.1235 21.6905 12.8437L26.5354 21.1315C26.3758 21.2248 26.2016 21.2966 26.0247 21.3426C25.8498 21.3881 25.703 21.4006 25.6 21.4006V11.8006ZM21.6886 12.8449C20.528 13.524 19.5932 14.4684 18.9206 15.6035L27.1794 20.4976C27.1171 20.6027 27.0286 20.7227 26.9098 20.8414C26.7907 20.9606 26.6624 21.0571 26.5374 21.1303L21.6886 12.8449ZM18.934 15.581C18.0361 17.0776 17.9351 18.8472 18.5732 20.3999L27.4528 16.7512C27.6595 17.2543 27.8061 17.9032 27.7538 18.6443C27.7014 19.3889 27.4621 20.0265 27.1659 20.5202L18.934 15.581ZM18.5675 20.3861C19.1728 21.8723 20.3208 22.8822 21.5788 23.4064L25.2711 14.5448C25.6549 14.7047 26.0982 14.964 26.5156 15.3692C26.9396 15.7809 27.2541 16.2635 27.4584 16.7651L18.5675 20.3861ZM21.6423 23.4323C23.0033 23.9767 24.4024 23.9186 25.5903 23.4866L22.3096 14.4646C23.1309 14.1659 24.1799 14.1078 25.2077 14.5189L21.6423 23.4323ZM25.5903 23.4866C26.8109 23.0427 27.7047 22.2518 28.3069 21.4238L20.543 15.7774C20.8786 15.316 21.4557 14.7751 22.3096 14.4646L25.5903 23.4866ZM28.265 21.4806C28.0212 21.8056 27.6383 22.173 27.0966 22.4438L22.8034 13.8573C21.8616 14.3282 21.1287 14.9956 20.585 15.7206L28.265 21.4806ZM27.0966 22.4438C26.6009 22.6917 26.0784 22.8006 25.6 22.8006V13.2006C24.6549 13.2006 23.6991 13.4095 22.8034 13.8573L27.0966 22.4438ZM25.6 22.8006C25.0532 22.8006 24.1598 22.6206 23.3666 21.9078L29.7834 14.7674C28.4902 13.6052 26.9468 13.2006 25.6 13.2006V22.8006ZM23.3613 21.903C22.9649 21.5457 22.6333 21.0871 22.4162 20.5585C22.2051 20.0447 22.15 19.5825 22.15 19.2506H31.75C31.75 17.7167 31.1939 16.0388 29.7886 14.7721L23.3613 21.903ZM22.15 19.2506C22.15 18.5106 22.3773 17.8396 22.709 17.3222L30.791 22.503C31.3893 21.5696 31.75 20.4573 31.75 19.2506H22.15ZM22.7052 17.3281C22.7658 17.2332 22.8153 17.167 22.8426 17.1319C22.8572 17.1132 22.8684 17.0996 22.8754 17.0912C22.8824 17.0827 22.8863 17.0784 22.8864 17.0783C22.8865 17.0781 22.8837 17.0814 22.8774 17.0881C22.8711 17.0948 22.862 17.1043 22.8498 17.1168C22.825 17.1421 22.7903 17.1766 22.744 17.2206L29.356 24.1806C29.7747 23.7828 30.3446 23.2017 30.7948 22.4971L22.7052 17.3281ZM22.9373 17.0466C22.4392 17.471 21.6701 18.1622 21.1123 19.0299L29.1876 24.2212C29.1403 24.2949 29.098 24.3545 29.0647 24.3993C29.0312 24.4443 29.0031 24.4793 28.9827 24.5038C28.9435 24.551 28.922 24.5726 28.9278 24.5666C28.9325 24.5618 28.9534 24.5407 28.9947 24.5026C29.0356 24.4649 29.0908 24.4158 29.1626 24.3546L22.9373 17.0466ZM21.1123 19.0299C20.3395 20.2321 20.1475 21.494 20.0881 22.296L29.6619 23.0052C29.6616 23.0085 29.6596 23.0353 29.6522 23.082C29.6449 23.1284 29.6309 23.2032 29.6048 23.3007C29.5557 23.4835 29.4427 23.8244 29.1876 24.2212L21.1123 19.0299ZM20.0916 22.252C19.9577 23.8579 20.5273 25.3665 21.5772 26.4755L28.5488 19.8757C28.8839 20.2297 29.2119 20.7087 29.4285 21.3136C29.6463 21.922 29.7024 22.521 29.6584 23.0492L20.0916 22.252ZM21.5694 26.4673C22.6687 27.634 24.1369 28.2006 25.6 28.2006V18.6006C26.0544 18.6006 26.5955 18.6815 27.1582 18.9172C27.7262 19.1552 28.1955 19.5007 28.5565 19.8839L21.5694 26.4673ZM25.6 31.4006C27.2091 31.4006 28.6583 30.7531 29.7267 29.6881L22.9493 22.889C23.2362 22.6031 23.6277 22.3129 24.1279 22.1014C24.6318 21.8884 25.1392 21.8006 25.6 21.8006V31.4006ZM29.7375 29.6773C30.8025 28.6089 31.45 27.1597 31.45 25.5506H21.85C21.85 25.0898 21.9378 24.5824 22.1508 24.0785C22.3623 23.5783 22.6525 23.1868 22.9384 22.8999L29.7375 29.6773ZM31.45 25.5506C31.45 23.9415 30.8025 22.4923 29.7375 21.4239L22.9384 28.2013C22.6525 27.9144 22.3623 27.5229 22.1508 27.0227C21.9378 26.5188 21.85 26.0114 21.85 25.5506H31.45ZM29.7267 21.413C28.6583 20.3481 27.2091 19.7006 25.6 19.7006V29.3006C25.1392 29.3006 24.6318 29.2128 24.1279 28.9997C23.6277 28.7883 23.2362 28.4981 22.9493 28.2121L29.7267 21.413ZM25.6 19.7006C23.9903 19.7006 22.5387 20.3487 21.4689 21.4185L28.2571 28.2067C27.9692 28.4946 27.5763 28.7864 27.0745 28.9988C26.5691 29.2128 26.0607 29.3006 25.6 29.3006V19.7006ZM21.4689 21.4185C20.4017 22.4856 19.75 23.9364 19.75 25.5506H29.35C29.35 26.0134 29.2614 26.5226 29.0472 27.0278C28.8346 27.529 28.5433 27.9205 28.2571 28.2067L21.4689 21.4185ZM19.75 25.5506C19.75 27.1647 20.4017 28.6155 21.4689 29.6827L28.2571 22.8945C28.5433 23.1807 28.8346 23.5722 29.0472 24.0734C29.2614 24.5785 29.35 25.0877 29.35 25.5506H19.75ZM21.4689 29.6827C22.5387 30.7525 23.9903 31.4006 25.6 31.4006V21.8006C26.0607 21.8006 26.5691 21.8884 27.0745 22.1024C27.5763 22.3148 27.9692 22.6065 28.2571 22.8945L21.4689 29.6827ZM19.6 24.8006C19.9069 24.8006 20.2836 24.858 20.6771 25.0216C21.07 25.1849 21.3719 25.4093 21.5821 25.6195L14.7939 32.4077C16.0791 33.6929 17.768 34.4006 19.6 34.4006V24.8006ZM21.5821 25.6195C21.7912 25.8286 22.0152 26.1296 22.1786 26.5222C22.3422 26.9155 22.4 27.2925 22.4 27.6006H12.8C12.8 29.435 13.5097 31.1236 14.7939 32.4077L21.5821 25.6195ZM22.4 27.6006V15.6006H12.8V27.6006H22.4ZM22.4 15.6006C22.4 15.9087 22.3422 16.2857 22.1786 16.679C22.0152 17.0715 21.7912 17.3726 21.5821 17.5817L14.7939 10.7935C13.5097 12.0776 12.8 13.7662 12.8 15.6006H22.4ZM21.5821 17.5817C21.3719 17.7919 21.07 18.0163 20.6771 18.1796C20.2836 18.3432 19.9069 18.4006 19.6 18.4006V8.80059C17.768 8.80059 16.0791 9.50828 14.7939 10.7935L21.5821 17.5817ZM19.6 18.4006H31.6V8.80059H19.6V18.4006ZM31.6 18.4006C31.293 18.4006 30.9169 18.3432 30.5243 18.1801C30.1323 18.0172 29.8312 17.7937 29.6218 17.5846L36.4042 10.7906C35.1194 9.50801 33.4317 8.80059 31.6 8.80059V18.4006ZM29.616 17.5788C29.4069 17.3693 29.1833 17.0683 29.0205 16.6763C28.8574 16.2837 28.8 15.9076 28.8 15.6006H38.4C38.4 13.7689 37.6926 12.0811 36.41 10.7964L29.616 17.5788ZM28.8 15.6006V27.6006H38.4V15.6006H28.8ZM28.8 27.6006C28.8 27.2936 28.8574 26.9175 29.0205 26.5249C29.1833 26.1329 29.4069 25.8318 29.616 25.6224L36.41 32.4048C37.6926 31.12 38.4 29.4323 38.4 27.6006H28.8ZM29.6218 25.6166C29.8312 25.4075 30.1323 25.184 30.5243 25.0211C30.9169 24.858 31.293 24.8006 31.6 24.8006V34.4006C33.4317 34.4006 35.1194 33.6932 36.4042 32.4106L29.6218 25.6166ZM31.6 24.8006H19.6V34.4006H31.6V24.8006ZM19.6 32.4006H31.6V22.8006H19.6V32.4006ZM36.4 27.6006V15.6006H26.8V27.6006H36.4ZM31.6 10.8006H19.6V20.4006H31.6V10.8006ZM14.8 15.6006V27.6006H24.4V15.6006H14.8ZM15.6 28.8006C15.9069 28.8006 16.2836 28.858 16.6771 29.0216C17.07 29.1849 17.3719 29.4093 17.5821 29.6195L10.7939 36.4077C12.0791 37.6929 13.768 38.4006 15.6 38.4006V28.8006ZM17.5821 29.6195C17.7912 29.8286 18.0152 30.1296 18.1786 30.5222C18.3422 30.9155 18.4 31.2925 18.4 31.6006H8.79998C8.79998 33.435 9.50974 35.1236 10.7939 36.4077L17.5821 29.6195ZM18.4 31.6006V18.6006H8.79998V31.6006H18.4ZM18.4 18.6006C18.4 19.01 18.3285 19.4978 18.1226 20.0076C17.9151 20.5214 17.6144 20.9494 17.2821 21.2817L10.4939 14.4935C9.35899 15.6284 8.79998 17.1059 8.79998 18.6006H18.4ZM17.2821 21.2817C16.9478 21.616 16.5183 21.917 16.004 22.1243C15.4941 22.3298 15.0073 22.4006 14.6 22.4006V12.8006C13.1104 12.8006 11.6315 13.3558 10.4939 14.4935L17.2821 21.2817ZM14.6 22.4006C14.1926 22.4006 13.7067 22.3298 13.1984 22.1251C12.6858 21.9188 12.2579 21.6195 11.9248 21.2876L18.7012 14.4876C17.5651 13.3555 16.0894 12.8006 14.6 12.8006V22.4006ZM11.913 21.2758C11.581 20.9427 11.2817 20.5147 11.0754 20.0022C10.8708 19.4939 10.8 19.008 10.8 18.6006H20.4C20.4 17.1112 19.8451 15.6354 18.713 14.4994L11.913 21.2758ZM10.8 18.6006V31.6006H20.4V18.6006H10.8ZM15.6 36.4006H28.6V26.8006H15.6V36.4006ZM28.6 36.4006C28.1906 36.4006 27.7019 36.3292 27.1906 36.1223C26.675 35.9138 26.2455 35.6115 25.912 35.2768L32.712 28.5004C31.5755 27.36 30.0948 26.8006 28.6 26.8006V36.4006ZM25.9238 35.2886C25.5891 34.9551 25.2868 34.5255 25.0782 34.01C24.8714 33.4987 24.8 33.0099 24.8 32.6006H34.4C34.4 31.1057 33.8406 29.625 32.7002 28.4886L25.9238 35.2886ZM24.8 32.6006C24.8 32.1912 24.8714 31.7025 25.0782 31.1912C25.2868 30.6756 25.5891 30.2461 25.9238 29.9126L32.7002 36.7126C33.8406 35.5761 34.4 34.0954 34.4 32.6006H24.8ZM25.912 29.9244C26.2455 29.5897 26.675 29.2874 27.1906 29.0788C27.7019 28.872 28.1906 28.8006 28.6 28.8006V38.4006C30.0948 38.4006 31.5755 37.8412 32.712 36.7008L25.912 29.9244ZM28.6 28.8006H15.6V38.4006H28.6V28.8006Z" fill="url(#paint0_linear_257_124)" mask="url(#path-1-inside-1_257_124)"/>
<path d="M32.4969 34.9569L34.8673 37.3273L35.2916 37.7516L35.7159 37.3272L41.3938 31.6482L42.2429 32.4968L35.2915 39.4481L31.6484 35.806L32.4969 34.9569ZM48.8 43.3998C48.9591 43.3998 49.1117 43.463 49.2243 43.5755C49.3368 43.6881 49.4 43.8407 49.4 43.9998C49.4 44.1589 49.3368 44.3115 49.2243 44.4241C49.1117 44.5366 48.9591 44.5998 48.8 44.5998H36.8C36.6409 44.5998 36.4882 44.5366 36.3757 44.4241C36.2632 44.3115 36.2 44.1589 36.2 43.9998C36.2 43.8407 36.2632 43.6881 36.3757 43.5755C36.4882 43.463 36.6409 43.3998 36.8 43.3998H48.8ZM48.8 48.1998C48.9591 48.1998 49.1117 48.263 49.2243 48.3755C49.3368 48.4881 49.4 48.6407 49.4 48.7998C49.4 48.9589 49.3368 49.1115 49.2243 49.2241C49.1117 49.3366 48.9591 49.3998 48.8 49.3998H36.8C36.6409 49.3998 36.4882 49.3366 36.3757 49.2241C36.2632 49.1115 36.2 48.9589 36.2 48.7998C36.2 48.6407 36.2632 48.4881 36.3757 48.3755C36.4882 48.263 36.6409 48.1998 36.8 48.1998H48.8ZM44 38.5998H48.8C48.9591 38.5998 49.1117 38.663 49.2243 38.7755C49.3368 38.8881 49.4 39.0407 49.4 39.1998C49.4 39.3589 49.3368 39.5115 49.2243 39.6241C49.1117 39.7366 48.9591 39.7998 48.8 39.7998H44C43.8409 39.7998 43.6882 39.7366 43.5757 39.6241C43.4632 39.5115 43.4 39.3589 43.4 39.1998C43.4 39.0407 43.4632 38.8881 43.5757 38.7755C43.6882 38.663 43.8409 38.5998 44 38.5998Z" fill="black" stroke="url(#paint1_linear_257_124)" stroke-width="1.2"/>
<path d="M13.002 28.3989C12.0416 28.4004 11.0932 28.6113 10.2228 29.0172C9.35243 29.423 8.5811 30.0138 7.96264 30.7485C7.34418 31.4832 6.89351 32.344 6.64206 33.2708C6.39061 34.1976 6.34445 35.1682 6.5068 36.1147C6.66916 37.0612 7.03611 37.9609 7.58205 38.7509C8.12799 39.541 8.83976 40.2024 9.6677 40.689C10.4956 41.1756 11.4198 41.4756 12.3756 41.5682C13.3315 41.6608 14.2961 41.5436 15.202 41.2249" stroke="url(#paint2_linear_257_124)" stroke-width="3.3" stroke-linecap="round" stroke-linejoin="round"/>
<path d="M6.98276 31.9301C5.6662 31.2963 4.52819 30.3446 3.67143 29.1609C2.81468 27.9773 2.26615 26.5989 2.07535 25.1502C1.88455 23.7015 2.05748 22.2281 2.57855 20.863C3.09961 19.4979 3.95241 18.284 5.05996 17.3309M5.12596 17.1527C4.40445 16.073 4.08822 14.7729 4.23324 13.4825C4.37827 12.1921 4.97519 10.9946 5.91834 10.102C6.8615 9.20945 8.09004 8.67938 9.38649 8.60563C10.6829 8.53189 11.9637 8.91924 13.002 9.6991M13.5256 9.8421C13.1746 9.0964 12.9957 8.28136 13.0021 7.45722C13.0085 6.63308 13.2001 5.82092 13.5626 5.08077C13.9251 4.34062 14.4493 3.6914 15.0965 3.1811C15.7437 2.6708 16.4973 2.31247 17.3016 2.13259C18.1059 1.95272 18.9403 1.95589 19.7432 2.14189C20.5461 2.32789 21.2969 2.69194 21.9402 3.20716C22.5835 3.72237 23.1027 4.37556 23.4596 5.11845C23.8165 5.86134 24.0018 6.67494 24.002 7.4991C24.0021 6.67494 24.1874 5.86134 24.5443 5.11845C24.9012 4.37556 25.4204 3.72237 26.0637 3.20716C26.707 2.69194 27.4578 2.32789 28.2607 2.14189C29.0636 1.95589 29.8981 1.95272 30.7024 2.13259C31.5066 2.31247 32.2602 2.6708 32.9074 3.1811C33.5546 3.6914 34.0788 4.34062 34.4413 5.08077C34.8038 5.82092 34.9954 6.63308 35.0018 7.45722C35.0082 8.28136 34.8293 9.0964 34.4784 9.8421M15.202 41.5991C15.202 42.7661 15.6655 43.8852 16.4907 44.7104C17.3158 45.5355 18.435 45.9991 19.602 45.9991C20.7689 45.9991 21.8881 45.5355 22.7132 44.7104C23.5384 43.8852 24.002 42.7661 24.002 41.5991C24.002 42.7661 24.4655 43.8852 25.2907 44.7104C26.1158 45.5355 27.235 45.9991 28.402 45.9991M42.944 17.3309C43.9045 18.156 44.6751 19.1792 45.2029 20.3302C45.7308 21.4812 46.0034 22.7328 46.002 23.9991C46.002 25.5457 45.6038 26.9999 44.902 28.2627M42.878 17.1527C43.5995 16.073 43.9157 14.7729 43.7707 13.4825C43.6256 12.1921 43.0287 10.9946 42.0856 10.102C41.1424 9.20945 39.9139 8.67938 38.6174 8.60563C37.321 8.53189 36.0402 8.91924 35.002 9.6991" stroke="url(#paint3_linear_257_124)" stroke-width="3.3" stroke-linecap="round" stroke-linejoin="round"/>
<defs>
<linearGradient id="paint0_linear_257_124" x1="31.5419" y1="11.0673" x2="14.5174" y2="11.3914" gradientUnits="userSpaceOnUse">
<stop offset="0.244792" stop-color="#FF5CEF"/>
<stop offset="1" stop-color="#780BE6"/>
</linearGradient>
<linearGradient id="paint1_linear_257_124" x1="48.0242" y1="28.3678" x2="31.6808" y2="28.679" gradientUnits="userSpaceOnUse">
<stop offset="0.244792" stop-color="#FF5CEF"/>
<stop offset="1" stop-color="#780BE6"/>
</linearGradient>
<linearGradient id="paint2_linear_257_124" x1="14.2974" y1="26.7269" x2="6.81353" y2="26.8218" gradientUnits="userSpaceOnUse">
<stop offset="0.244792" stop-color="#FF5CEF"/>
<stop offset="1" stop-color="#780BE6"/>
</linearGradient>
<linearGradient id="paint3_linear_257_124" x1="41.4739" y1="-3.5732" x2="4.01851" y2="-2.86002" gradientUnits="userSpaceOnUse">
<stop offset="0.244792" stop-color="#FF5CEF"/>
<stop offset="1" stop-color="#780BE6"/>
</linearGradient>
</defs>
</svg>
