<svg width="475" height="75" viewBox="0 0 300 75" fill="none" xmlns="http://www.w3.org/2000/svg">
<mask id="path-1-inside-1_255_97" fill="white">
<path d="M25.6 37.4006C25.7833 37.4006 25.954 37.3296 26.112 37.1876C26.2706 37.0463 26.3666 36.8673 26.4 36.6506C26.4333 36.4339 26.5126 36.2423 26.638 36.0756C26.7626 35.9089 26.95 35.7006 27.2 35.4506C27.7 34.9506 28.0333 34.5463 28.2 34.2376C28.3666 33.9296 28.45 33.5673 28.45 33.1506C28.45 32.4006 28.1873 31.7883 27.662 31.3136C27.1373 30.8383 26.45 30.6006 25.6 30.6006C25.05 30.6006 24.5543 30.7296 24.113 30.9876C23.671 31.2463 23.3166 31.6006 23.05 32.0506C22.95 32.2173 22.9376 32.3923 23.013 32.5756C23.0876 32.7589 23.225 32.8923 23.425 32.9756C23.5916 33.0423 23.7666 33.0423 23.95 32.9756C24.1333 32.9089 24.2916 32.7839 24.425 32.6006C24.575 32.4006 24.75 32.2506 24.95 32.1506C25.15 32.0506 25.3666 32.0006 25.6 32.0006C26 32.0006 26.325 32.1129 26.575 32.3376C26.825 32.5629 26.95 32.8673 26.95 33.2506C26.95 33.4839 26.8833 33.7046 26.75 33.9126C26.6166 34.1213 26.3833 34.3839 26.05 34.7006C25.6 35.0839 25.3 35.3923 25.15 35.6256C25 35.8589 24.9083 36.2006 24.875 36.6506C24.8583 36.8506 24.921 37.0256 25.063 37.1756C25.2043 37.3256 25.3833 37.4006 25.6 37.4006ZM25.6 40.6006C25.8833 40.6006 26.1293 40.4966 26.338 40.2886C26.546 40.0799 26.65 39.8339 26.65 39.5506C26.65 39.2673 26.546 39.0213 26.338 38.8126C26.1293 38.6046 25.8833 38.5006 25.6 38.5006C25.3166 38.5006 25.071 38.6046 24.863 38.8126C24.6543 39.0213 24.55 39.2673 24.55 39.5506C24.55 39.8339 24.6543 40.0799 24.863 40.2886C25.071 40.4966 25.3166 40.6006 25.6 40.6006ZM19.6 43.6006C19.05 43.6006 18.5793 43.4049 18.188 43.0136C17.796 42.6216 17.6 42.1506 17.6 41.6006V29.6006C17.6 29.0506 17.796 28.5796 18.188 28.1876C18.5793 27.7963 19.05 27.6006 19.6 27.6006H31.6C32.15 27.6006 32.621 27.7963 33.013 28.1876C33.4043 28.5796 33.6 29.0506 33.6 29.6006V41.6006C33.6 42.1506 33.4043 42.6216 33.013 43.0136C32.621 43.4049 32.15 43.6006 31.6 43.6006H19.6ZM19.6 41.6006H31.6V29.6006H19.6V41.6006ZM15.6 47.6006C15.05 47.6006 14.5793 47.4049 14.188 47.0136C13.796 46.6216 13.6 46.1506 13.6 45.6006V32.6006C13.6 32.3173 13.696 32.0796 13.888 31.8876C14.0793 31.6963 14.3166 31.6006 14.6 31.6006C14.8833 31.6006 15.121 31.6963 15.313 31.8876C15.5043 32.0796 15.6 32.3173 15.6 32.6006V45.6006H28.6C28.8833 45.6006 29.1206 45.6966 29.312 45.8886C29.504 46.0799 29.6 46.3173 29.6 46.6006C29.6 46.8839 29.504 47.1213 29.312 47.3126C29.1206 47.5046 28.8833 47.6006 28.6 47.6006H15.6Z"/>
</mask>
<path d="M25.6 37.4006C25.7833 37.4006 25.954 37.3296 26.112 37.1876C26.2706 37.0463 26.3666 36.8673 26.4 36.6506C26.4333 36.4339 26.5126 36.2423 26.638 36.0756C26.7626 35.9089 26.95 35.7006 27.2 35.4506C27.7 34.9506 28.0333 34.5463 28.2 34.2376C28.3666 33.9296 28.45 33.5673 28.45 33.1506C28.45 32.4006 28.1873 31.7883 27.662 31.3136C27.1373 30.8383 26.45 30.6006 25.6 30.6006C25.05 30.6006 24.5543 30.7296 24.113 30.9876C23.671 31.2463 23.3166 31.6006 23.05 32.0506C22.95 32.2173 22.9376 32.3923 23.013 32.5756C23.0876 32.7589 23.225 32.8923 23.425 32.9756C23.5916 33.0423 23.7666 33.0423 23.95 32.9756C24.1333 32.9089 24.2916 32.7839 24.425 32.6006C24.575 32.4006 24.75 32.2506 24.95 32.1506C25.15 32.0506 25.3666 32.0006 25.6 32.0006C26 32.0006 26.325 32.1129 26.575 32.3376C26.825 32.5629 26.95 32.8673 26.95 33.2506C26.95 33.4839 26.8833 33.7046 26.75 33.9126C26.6166 34.1213 26.3833 34.3839 26.05 34.7006C25.6 35.0839 25.3 35.3923 25.15 35.6256C25 35.8589 24.9083 36.2006 24.875 36.6506C24.8583 36.8506 24.921 37.0256 25.063 37.1756C25.2043 37.3256 25.3833 37.4006 25.6 37.4006ZM25.6 40.6006C25.8833 40.6006 26.1293 40.4966 26.338 40.2886C26.546 40.0799 26.65 39.8339 26.65 39.5506C26.65 39.2673 26.546 39.0213 26.338 38.8126C26.1293 38.6046 25.8833 38.5006 25.6 38.5006C25.3166 38.5006 25.071 38.6046 24.863 38.8126C24.6543 39.0213 24.55 39.2673 24.55 39.5506C24.55 39.8339 24.6543 40.0799 24.863 40.2886C25.071 40.4966 25.3166 40.6006 25.6 40.6006ZM19.6 43.6006C19.05 43.6006 18.5793 43.4049 18.188 43.0136C17.796 42.6216 17.6 42.1506 17.6 41.6006V29.6006C17.6 29.0506 17.796 28.5796 18.188 28.1876C18.5793 27.7963 19.05 27.6006 19.6 27.6006H31.6C32.15 27.6006 32.621 27.7963 33.013 28.1876C33.4043 28.5796 33.6 29.0506 33.6 29.6006V41.6006C33.6 42.1506 33.4043 42.6216 33.013 43.0136C32.621 43.4049 32.15 43.6006 31.6 43.6006H19.6ZM19.6 41.6006H31.6V29.6006H19.6V41.6006ZM15.6 47.6006C15.05 47.6006 14.5793 47.4049 14.188 47.0136C13.796 46.6216 13.6 46.1506 13.6 45.6006V32.6006C13.6 32.3173 13.696 32.0796 13.888 31.8876C14.0793 31.6963 14.3166 31.6006 14.6 31.6006C14.8833 31.6006 15.121 31.6963 15.313 31.8876C15.5043 32.0796 15.6 32.3173 15.6 32.6006V45.6006H28.6C28.8833 45.6006 29.1206 45.6966 29.312 45.8886C29.504 46.0799 29.6 46.3173 29.6 46.6006C29.6 46.8839 29.504 47.1213 29.312 47.3126C29.1206 47.5046 28.8833 47.6006 28.6 47.6006H15.6Z" fill="black"/>
<path d="M26.112 37.1876L22.9193 33.6033L22.9114 33.6104L22.9034 33.6175L26.112 37.1876ZM26.638 36.0756L30.4743 38.9605L30.4817 38.9507L26.638 36.0756ZM28.2 34.2376L23.9784 31.9532L23.9764 31.957L28.2 34.2376ZM27.662 31.3136L24.4392 34.8708L24.444 34.8751L27.662 31.3136ZM24.113 30.9876L21.6905 26.8437L21.6886 26.8449L24.113 30.9876ZM23.05 32.0506L27.1659 34.5202L27.1727 34.5089L27.1794 34.4976L23.05 32.0506ZM23.013 32.5756L27.4584 30.7651L27.4556 30.7582L27.4528 30.7512L23.013 32.5756ZM23.425 32.9756L21.5788 37.4064L21.6105 37.4195L21.6423 37.4323L23.425 32.9756ZM24.425 32.6006L20.585 29.7206L20.5638 29.7488L20.543 29.7774L24.425 32.6006ZM26.575 32.3376L29.7886 28.7721L29.7834 28.7674L26.575 32.3376ZM26.75 33.9126L22.709 31.3222L22.7052 31.3281L26.75 33.9126ZM26.05 34.7006L29.1626 38.3546L29.2617 38.2702L29.356 38.1806L26.05 34.7006ZM24.875 36.6506L29.6584 37.0492L29.6602 37.0272L29.6619 37.0052L24.875 36.6506ZM25.063 37.1756L28.5565 33.8839L28.5488 33.8757L25.063 37.1756ZM26.338 40.2886L29.7267 43.6881L29.7321 43.6827L29.7375 43.6773L26.338 40.2886ZM26.338 38.8126L29.7375 35.4239L29.7321 35.4185L29.7267 35.413L26.338 38.8126ZM33.013 28.1876L36.41 24.7964L36.4042 24.7906L33.013 28.1876ZM33.013 43.0136L36.4042 46.4106L36.41 46.4048L33.013 43.0136ZM19.6 41.6006H14.8V46.4006H19.6V41.6006ZM31.6 41.6006V46.4006H36.4V41.6006H31.6ZM31.6 29.6006H36.4V24.8006H31.6V29.6006ZM19.6 29.6006V24.8006H14.8V29.6006H19.6ZM15.313 31.8876L18.713 28.4994L18.7071 28.4935L18.7012 28.4876L15.313 31.8876ZM15.6 45.6006H10.8V50.4006H15.6V45.6006ZM29.312 45.8886L25.912 49.2768L25.9179 49.2827L25.9238 49.2886L29.312 45.8886ZM29.312 47.3126L25.9238 43.9126L25.9179 43.9185L25.912 43.9244L29.312 47.3126ZM25.6 42.2006C27.154 42.2006 28.4303 41.5577 29.3205 40.7576L22.9034 33.6175C23.4776 33.1015 24.4126 32.6006 25.6 32.6006V42.2006ZM29.3047 40.7718C30.3248 39.8631 30.947 38.662 31.1442 37.3805L21.6558 35.9207C21.7863 35.0725 22.2165 34.2294 22.9193 33.6033L29.3047 40.7718ZM31.1442 37.3805C31.0635 37.9046 30.8492 38.462 30.4743 38.9605L22.8017 33.1907C22.1761 34.0225 21.8031 34.9633 21.6558 35.9207L31.1442 37.3805ZM30.4817 38.9507C30.4557 38.9854 30.4383 39.0065 30.4331 39.0128C30.4275 39.0195 30.4296 39.0167 30.4412 39.0038C30.4658 38.9765 30.5144 38.9244 30.5941 38.8447L23.8059 32.0565C23.4889 32.3734 23.1183 32.7673 22.7943 33.2005L30.4817 38.9507ZM30.5941 38.8447C31.1603 38.2784 31.9102 37.469 32.4236 36.5182L23.9764 31.957C24.0413 31.8367 24.0936 31.7599 24.1137 31.7311C24.1354 31.7002 24.1407 31.6955 24.1213 31.719C24.1027 31.7416 24.0682 31.7819 24.0139 31.8408C23.96 31.8993 23.8913 31.971 23.8059 32.0565L30.5941 38.8447ZM32.4215 36.522C33.0338 35.3905 33.25 34.2138 33.25 33.1506H23.65C23.65 32.9207 23.6995 32.4686 23.9784 31.9532L32.4215 36.522ZM33.25 33.1506C33.25 31.134 32.478 29.196 30.88 27.7521L24.444 34.8751C24.226 34.6781 24 34.3902 23.8417 34.0211C23.6862 33.6586 23.65 33.3445 23.65 33.1506H33.25ZM30.8847 27.7564C29.3068 26.3268 27.3892 25.8006 25.6 25.8006V35.4006C25.5792 35.4006 25.4223 35.3976 25.1844 35.3153C24.9333 35.2285 24.6698 35.0797 24.4392 34.8708L30.8847 27.7564ZM25.6 25.8006C24.2654 25.8006 22.9225 26.1235 21.6905 26.8437L26.5354 35.1315C26.3758 35.2248 26.2016 35.2966 26.0247 35.3426C25.8498 35.3881 25.703 35.4006 25.6 35.4006V25.8006ZM21.6886 26.8449C20.528 27.524 19.5932 28.4684 18.9206 29.6035L27.1794 34.4976C27.1171 34.6027 27.0286 34.7227 26.9098 34.8414C26.7907 34.9606 26.6624 35.0571 26.5374 35.1303L21.6886 26.8449ZM18.934 29.581C18.0361 31.0776 17.9351 32.8472 18.5732 34.3999L27.4528 30.7512C27.6595 31.2543 27.8061 31.9032 27.7538 32.6443C27.7014 33.3889 27.4621 34.0265 27.1659 34.5202L18.934 29.581ZM18.5675 34.3861C19.1728 35.8723 20.3208 36.8822 21.5788 37.4064L25.2711 28.5448C25.6549 28.7047 26.0982 28.964 26.5156 29.3692C26.9396 29.7809 27.2541 30.2635 27.4584 30.7651L18.5675 34.3861ZM21.6423 37.4323C23.0033 37.9767 24.4024 37.9186 25.5903 37.4866L22.3096 28.4646C23.1309 28.1659 24.1799 28.1078 25.2077 28.5189L21.6423 37.4323ZM25.5903 37.4866C26.8109 37.0427 27.7047 36.2518 28.3069 35.4238L20.543 29.7774C20.8786 29.316 21.4557 28.7751 22.3096 28.4646L25.5903 37.4866ZM28.265 35.4806C28.0212 35.8056 27.6383 36.173 27.0966 36.4438L22.8034 27.8573C21.8616 28.3282 21.1287 28.9956 20.585 29.7206L28.265 35.4806ZM27.0966 36.4438C26.6009 36.6917 26.0784 36.8006 25.6 36.8006V27.2006C24.6549 27.2006 23.6991 27.4095 22.8034 27.8573L27.0966 36.4438ZM25.6 36.8006C25.0532 36.8006 24.1598 36.6206 23.3666 35.9078L29.7834 28.7674C28.4902 27.6052 26.9468 27.2006 25.6 27.2006V36.8006ZM23.3613 35.903C22.9649 35.5457 22.6333 35.0871 22.4162 34.5585C22.2051 34.0447 22.15 33.5825 22.15 33.2506H31.75C31.75 31.7167 31.1939 30.0388 29.7886 28.7721L23.3613 35.903ZM22.15 33.2506C22.15 32.5106 22.3773 31.8396 22.709 31.3222L30.791 36.503C31.3893 35.5696 31.75 34.4573 31.75 33.2506H22.15ZM22.7052 31.3281C22.7658 31.2332 22.8153 31.167 22.8426 31.1319C22.8572 31.1132 22.8684 31.0996 22.8754 31.0912C22.8824 31.0827 22.8863 31.0784 22.8864 31.0783C22.8865 31.0781 22.8837 31.0814 22.8774 31.0881C22.8711 31.0948 22.862 31.1043 22.8498 31.1168C22.825 31.1421 22.7903 31.1766 22.744 31.2206L29.356 38.1806C29.7747 37.7828 30.3446 37.2017 30.7948 36.4971L22.7052 31.3281ZM22.9373 31.0466C22.4392 31.471 21.6701 32.1622 21.1123 33.0299L29.1876 38.2212C29.1403 38.2949 29.098 38.3545 29.0647 38.3993C29.0312 38.4443 29.0031 38.4793 28.9827 38.5038C28.9435 38.551 28.922 38.5726 28.9278 38.5666C28.9325 38.5618 28.9534 38.5407 28.9947 38.5026C29.0356 38.4649 29.0908 38.4158 29.1626 38.3546L22.9373 31.0466ZM21.1123 33.0299C20.3395 34.2321 20.1475 35.494 20.0881 36.296L29.6619 37.0052C29.6616 37.0085 29.6596 37.0353 29.6522 37.082C29.6449 37.1284 29.6309 37.2032 29.6048 37.3007C29.5557 37.4835 29.4427 37.8244 29.1876 38.2212L21.1123 33.0299ZM20.0916 36.252C19.9577 37.8579 20.5273 39.3665 21.5772 40.4755L28.5488 33.8757C28.8839 34.2297 29.2119 34.7087 29.4285 35.3136C29.6463 35.922 29.7024 36.521 29.6584 37.0492L20.0916 36.252ZM21.5694 40.4673C22.6687 41.634 24.1369 42.2006 25.6 42.2006V32.6006C26.0544 32.6006 26.5955 32.6815 27.1582 32.9172C27.7262 33.1552 28.1955 33.5007 28.5565 33.8839L21.5694 40.4673ZM25.6 45.4006C27.2091 45.4006 28.6583 44.7531 29.7267 43.6881L22.9493 36.889C23.2362 36.6031 23.6277 36.3129 24.1279 36.1014C24.6318 35.8884 25.1392 35.8006 25.6 35.8006V45.4006ZM29.7375 43.6773C30.8025 42.6089 31.45 41.1597 31.45 39.5506H21.85C21.85 39.0898 21.9378 38.5824 22.1508 38.0785C22.3623 37.5783 22.6525 37.1868 22.9384 36.8999L29.7375 43.6773ZM31.45 39.5506C31.45 37.9415 30.8025 36.4923 29.7375 35.4239L22.9384 42.2013C22.6525 41.9144 22.3623 41.5229 22.1508 41.0227C21.9378 40.5188 21.85 40.0114 21.85 39.5506H31.45ZM29.7267 35.413C28.6583 34.3481 27.2091 33.7006 25.6 33.7006V43.3006C25.1392 43.3006 24.6318 43.2128 24.1279 42.9997C23.6277 42.7883 23.2362 42.4981 22.9493 42.2121L29.7267 35.413ZM25.6 33.7006C23.9903 33.7006 22.5387 34.3487 21.4689 35.4185L28.2571 42.2067C27.9692 42.4946 27.5763 42.7864 27.0745 42.9988C26.5691 43.2128 26.0607 43.3006 25.6 43.3006V33.7006ZM21.4689 35.4185C20.4017 36.4856 19.75 37.9364 19.75 39.5506H29.35C29.35 40.0134 29.2614 40.5226 29.0472 41.0278C28.8346 41.529 28.5433 41.9205 28.2571 42.2067L21.4689 35.4185ZM19.75 39.5506C19.75 41.1647 20.4017 42.6155 21.4689 43.6827L28.2571 36.8945C28.5433 37.1807 28.8346 37.5722 29.0472 38.0734C29.2614 38.5785 29.35 39.0877 29.35 39.5506H19.75ZM21.4689 43.6827C22.5387 44.7525 23.9903 45.4006 25.6 45.4006V35.8006C26.0607 35.8006 26.5691 35.8884 27.0745 36.1024C27.5763 36.3148 27.9692 36.6065 28.2571 36.8945L21.4689 43.6827ZM19.6 38.8006C19.9069 38.8006 20.2836 38.858 20.6771 39.0216C21.07 39.1849 21.3719 39.4093 21.5821 39.6195L14.7939 46.4077C16.0791 47.6929 17.768 48.4006 19.6 48.4006V38.8006ZM21.5821 39.6195C21.7912 39.8286 22.0152 40.1296 22.1786 40.5222C22.3422 40.9155 22.4 41.2925 22.4 41.6006H12.8C12.8 43.435 13.5097 45.1236 14.7939 46.4077L21.5821 39.6195ZM22.4 41.6006V29.6006H12.8V41.6006H22.4ZM22.4 29.6006C22.4 29.9087 22.3422 30.2857 22.1786 30.679C22.0152 31.0715 21.7912 31.3726 21.5821 31.5817L14.7939 24.7935C13.5097 26.0776 12.8 27.7662 12.8 29.6006H22.4ZM21.5821 31.5817C21.3719 31.7919 21.07 32.0163 20.6771 32.1796C20.2836 32.3432 19.9069 32.4006 19.6 32.4006V22.8006C17.768 22.8006 16.0791 23.5083 14.7939 24.7935L21.5821 31.5817ZM19.6 32.4006H31.6V22.8006H19.6V32.4006ZM31.6 32.4006C31.293 32.4006 30.9169 32.3432 30.5243 32.1801C30.1323 32.0172 29.8312 31.7937 29.6218 31.5846L36.4042 24.7906C35.1194 23.508 33.4317 22.8006 31.6 22.8006V32.4006ZM29.616 31.5788C29.4069 31.3693 29.1833 31.0683 29.0205 30.6763C28.8574 30.2837 28.8 29.9076 28.8 29.6006H38.4C38.4 27.7689 37.6926 26.0811 36.41 24.7964L29.616 31.5788ZM28.8 29.6006V41.6006H38.4V29.6006H28.8ZM28.8 41.6006C28.8 41.2936 28.8574 40.9175 29.0205 40.5249C29.1833 40.1329 29.4069 39.8318 29.616 39.6224L36.41 46.4048C37.6926 45.12 38.4 43.4323 38.4 41.6006H28.8ZM29.6218 39.6166C29.8312 39.4075 30.1323 39.184 30.5243 39.0211C30.9169 38.858 31.293 38.8006 31.6 38.8006V48.4006C33.4317 48.4006 35.1194 47.6932 36.4042 46.4106L29.6218 39.6166ZM31.6 38.8006H19.6V48.4006H31.6V38.8006ZM19.6 46.4006H31.6V36.8006H19.6V46.4006ZM36.4 41.6006V29.6006H26.8V41.6006H36.4ZM31.6 24.8006H19.6V34.4006H31.6V24.8006ZM14.8 29.6006V41.6006H24.4V29.6006H14.8ZM15.6 42.8006C15.9069 42.8006 16.2836 42.858 16.6771 43.0216C17.07 43.1849 17.3719 43.4093 17.5821 43.6195L10.7939 50.4077C12.0791 51.6929 13.768 52.4006 15.6 52.4006V42.8006ZM17.5821 43.6195C17.7912 43.8286 18.0152 44.1296 18.1786 44.5222C18.3422 44.9155 18.4 45.2925 18.4 45.6006H8.79998C8.79998 47.435 9.50974 49.1236 10.7939 50.4077L17.5821 43.6195ZM18.4 45.6006V32.6006H8.79998V45.6006H18.4ZM18.4 32.6006C18.4 33.01 18.3285 33.4978 18.1226 34.0076C17.9151 34.5214 17.6144 34.9494 17.2821 35.2817L10.4939 28.4935C9.35899 29.6284 8.79998 31.1059 8.79998 32.6006H18.4ZM17.2821 35.2817C16.9478 35.616 16.5183 35.917 16.004 36.1243C15.4941 36.3298 15.0073 36.4006 14.6 36.4006V26.8006C13.1104 26.8006 11.6315 27.3558 10.4939 28.4935L17.2821 35.2817ZM14.6 36.4006C14.1926 36.4006 13.7067 36.3298 13.1984 36.1251C12.6858 35.9188 12.2579 35.6195 11.9248 35.2876L18.7012 28.4876C17.5651 27.3555 16.0894 26.8006 14.6 26.8006V36.4006ZM11.913 35.2758C11.581 34.9427 11.2817 34.5147 11.0754 34.0022C10.8708 33.4939 10.8 33.008 10.8 32.6006H20.4C20.4 31.1112 19.8451 29.6354 18.713 28.4994L11.913 35.2758ZM10.8 32.6006V45.6006H20.4V32.6006H10.8ZM15.6 50.4006H28.6V40.8006H15.6V50.4006ZM28.6 50.4006C28.1906 50.4006 27.7019 50.3292 27.1906 50.1223C26.675 49.9138 26.2455 49.6115 25.912 49.2768L32.712 42.5004C31.5755 41.36 30.0948 40.8006 28.6 40.8006V50.4006ZM25.9238 49.2886C25.5891 48.9551 25.2868 48.5255 25.0782 48.01C24.8714 47.4987 24.8 47.0099 24.8 46.6006H34.4C34.4 45.1057 33.8406 43.625 32.7002 42.4886L25.9238 49.2886ZM24.8 46.6006C24.8 46.1912 24.8714 45.7025 25.0782 45.1912C25.2868 44.6756 25.5891 44.2461 25.9238 43.9126L32.7002 50.7126C33.8406 49.5761 34.4 48.0954 34.4 46.6006H24.8ZM25.912 43.9244C26.2455 43.5897 26.675 43.2874 27.1906 43.0788C27.7019 42.872 28.1906 42.8006 28.6 42.8006V52.4006C30.0948 52.4006 31.5755 51.8412 32.712 50.7008L25.912 43.9244ZM28.6 42.8006H15.6V52.4006H28.6V42.8006Z" fill="url(#paint0_linear_255_97)" mask="url(#path-1-inside-1_255_97)"/>
<path d="M32.4969 48.9569L34.8673 51.3273L35.2916 51.7516L35.7159 51.3272L41.3938 45.6482L42.2429 46.4968L35.2915 53.4481L31.6484 49.806L32.4969 48.9569ZM48.8 57.3998C48.9591 57.3998 49.1117 57.463 49.2243 57.5755C49.3368 57.6881 49.4 57.8407 49.4 57.9998C49.4 58.1589 49.3368 58.3115 49.2243 58.4241C49.1117 58.5366 48.9591 58.5998 48.8 58.5998H36.8C36.6409 58.5998 36.4882 58.5366 36.3757 58.4241C36.2632 58.3115 36.2 58.1589 36.2 57.9998C36.2 57.8407 36.2632 57.6881 36.3757 57.5755C36.4882 57.463 36.6409 57.3998 36.8 57.3998H48.8ZM48.8 62.1998C48.9591 62.1998 49.1117 62.263 49.2243 62.3755C49.3368 62.4881 49.4 62.6407 49.4 62.7998C49.4 62.9589 49.3368 63.1115 49.2243 63.2241C49.1117 63.3366 48.9591 63.3998 48.8 63.3998H36.8C36.6409 63.3998 36.4882 63.3366 36.3757 63.2241C36.2632 63.1115 36.2 62.9589 36.2 62.7998C36.2 62.6407 36.2632 62.4881 36.3757 62.3755C36.4882 62.263 36.6409 62.1998 36.8 62.1998H48.8ZM44 52.5998H48.8C48.9591 52.5998 49.1117 52.663 49.2243 52.7755C49.3368 52.8881 49.4 53.0407 49.4 53.1998C49.4 53.3589 49.3368 53.5115 49.2243 53.6241C49.1117 53.7366 48.9591 53.7998 48.8 53.7998H44C43.8409 53.7998 43.6882 53.7366 43.5757 53.6241C43.4632 53.5115 43.4 53.3589 43.4 53.1998C43.4 53.0407 43.4632 52.8881 43.5757 52.7755C43.6882 52.663 43.8409 52.5998 44 52.5998Z" fill="black" stroke="url(#paint1_linear_255_97)" stroke-width="1.2"/>
<path d="M13.002 42.3989C12.0416 42.4004 11.0932 42.6113 10.2228 43.0172C9.35243 43.423 8.5811 44.0138 7.96264 44.7485C7.34418 45.4832 6.89351 46.344 6.64206 47.2708C6.39061 48.1976 6.34445 49.1682 6.5068 50.1147C6.66916 51.0612 7.03611 51.9609 7.58205 52.7509C8.12799 53.541 8.83976 54.2024 9.6677 54.689C10.4956 55.1756 11.4198 55.4756 12.3756 55.5682C13.3315 55.6608 14.2961 55.5436 15.202 55.2249" stroke="url(#paint2_linear_255_97)" stroke-width="3.3" stroke-linecap="round" stroke-linejoin="round"/>
<path d="M6.98276 45.9301C5.6662 45.2963 4.52819 44.3446 3.67143 43.1609C2.81468 41.9773 2.26615 40.5989 2.07535 39.1502C1.88455 37.7015 2.05748 36.2281 2.57855 34.863C3.09961 33.4979 3.95241 32.284 5.05996 31.3309M5.12596 31.1527C4.40445 30.073 4.08822 28.7729 4.23324 27.4825C4.37827 26.1921 4.97519 24.9946 5.91834 24.102C6.8615 23.2095 8.09004 22.6794 9.38649 22.6056C10.6829 22.5319 11.9637 22.9192 13.002 23.6991M13.5256 23.8421C13.1746 23.0964 12.9957 22.2814 13.0021 21.4572C13.0085 20.6331 13.2001 19.8209 13.5626 19.0808C13.9251 18.3406 14.4493 17.6914 15.0965 17.1811C15.7437 16.6708 16.4973 16.3125 17.3016 16.1326C18.1059 15.9527 18.9403 15.9559 19.7432 16.1419C20.5461 16.3279 21.2969 16.6919 21.9402 17.2072C22.5835 17.7224 23.1027 18.3756 23.4596 19.1185C23.8165 19.8613 24.0018 20.6749 24.002 21.4991C24.0021 20.6749 24.1874 19.8613 24.5443 19.1185C24.9012 18.3756 25.4204 17.7224 26.0637 17.2072C26.707 16.6919 27.4578 16.3279 28.2607 16.1419C29.0636 15.9559 29.8981 15.9527 30.7024 16.1326C31.5066 16.3125 32.2602 16.6708 32.9074 17.1811C33.5546 17.6914 34.0788 18.3406 34.4413 19.0808C34.8038 19.8209 34.9954 20.6331 35.0018 21.4572C35.0082 22.2814 34.8293 23.0964 34.4784 23.8421M15.202 55.5991C15.202 56.7661 15.6655 57.8852 16.4907 58.7104C17.3158 59.5355 18.435 59.9991 19.602 59.9991C20.7689 59.9991 21.8881 59.5355 22.7132 58.7104C23.5384 57.8852 24.002 56.7661 24.002 55.5991C24.002 56.7661 24.4655 57.8852 25.2907 58.7104C26.1158 59.5355 27.235 59.9991 28.402 59.9991M42.944 31.3309C43.9045 32.156 44.6751 33.1792 45.2029 34.3302C45.7308 35.4812 46.0034 36.7328 46.002 37.9991C46.002 39.5457 45.6038 40.9999 44.902 42.2627M42.878 31.1527C43.5995 30.073 43.9157 28.7729 43.7707 27.4825C43.6256 26.1921 43.0287 24.9946 42.0856 24.102C41.1424 23.2095 39.9139 22.6794 38.6174 22.6056C37.321 22.5319 36.0402 22.9192 35.002 23.6991" stroke="url(#paint3_linear_255_97)" stroke-width="3.3" stroke-linecap="round" stroke-linejoin="round"/>
<path d="M82.4512 43.6885H90.365L94.3434 48.8067L98.2573 53.3657L105.634 62.6128H96.9455L91.8704 56.3764L89.2683 52.6775L82.4512 43.6885ZM106.3 36.9789C106.3 41.7817 105.39 45.8676 103.569 49.2368C101.763 52.6059 99.2968 55.1793 96.1714 56.957C93.0603 58.7204 89.5622 59.6021 85.6769 59.6021C81.763 59.6021 78.2506 58.7133 75.1395 56.9355C72.0285 55.1578 69.5697 52.5844 67.7633 49.2152C65.9569 45.8461 65.0537 41.7674 65.0537 36.9789C65.0537 32.1762 65.9569 28.0902 67.7633 24.7211C69.5697 21.352 72.0285 18.7857 75.1395 17.0223C78.2506 15.2446 81.763 14.3557 85.6769 14.3557C89.5622 14.3557 93.0603 15.2446 96.1714 17.0223C99.2968 18.7857 101.763 21.352 103.569 24.7211C105.39 28.0902 106.3 32.1762 106.3 36.9789ZM96.8595 36.9789C96.8595 33.8679 96.3936 31.2443 95.4617 29.1081C94.5442 26.972 93.2467 25.3519 91.5693 24.248C89.8919 23.1441 87.9278 22.5921 85.6769 22.5921C83.4261 22.5921 81.462 23.1441 79.7846 24.248C78.1072 25.3519 76.8026 26.972 75.8707 29.1081C74.9531 31.2443 74.4944 33.8679 74.4944 36.9789C74.4944 40.09 74.9531 42.7136 75.8707 44.8497C76.8026 46.9859 78.1072 48.6059 79.7846 49.7099C81.462 50.8138 83.4261 51.3657 85.6769 51.3657C87.9278 51.3657 89.8919 50.8138 91.5693 49.7099C93.2467 48.6059 94.5442 46.9859 95.4617 44.8497C96.3936 42.7136 96.8595 40.09 96.8595 36.9789ZM134.208 44.9358V25.9684H143.369V59H134.574V53.0001H134.23C133.484 54.9356 132.244 56.4911 130.509 57.6667C128.789 58.8423 126.689 59.4301 124.208 59.4301C122.001 59.4301 120.058 58.9283 118.381 57.9248C116.703 56.9212 115.391 55.4947 114.445 53.6453C113.513 51.7958 113.04 49.5808 113.026 47.0002V25.9684H122.187V45.3659C122.201 47.3156 122.725 48.8568 123.757 49.9894C124.789 51.122 126.173 51.6883 127.907 51.6883C129.011 51.6883 130.043 51.4374 131.004 50.9356C131.965 50.4195 132.739 49.6597 133.327 48.6561C133.929 47.6526 134.223 46.4124 134.208 44.9358ZM150.697 59V25.9684H159.858V59H150.697ZM155.299 21.7104C153.937 21.7104 152.769 21.2588 151.794 20.3556C150.833 19.4381 150.353 18.3413 150.353 17.0653C150.353 15.8037 150.833 14.7213 151.794 13.8181C152.769 12.9006 153.937 12.4418 155.299 12.4418C156.661 12.4418 157.822 12.9006 158.783 13.8181C159.758 14.7213 160.245 15.8037 160.245 17.0653C160.245 18.3413 159.758 19.4381 158.783 20.3556C157.822 21.2588 156.661 21.7104 155.299 21.7104ZM167.025 59V53.5377L183.197 33.5166V33.2801H167.584V25.9684H194.229V31.9253L179.046 51.4518V51.6883H194.788V59H167.025ZM201.621 59V53.5377L217.793 33.5166V33.2801H202.18V25.9684H228.825V31.9253L213.642 51.4518V51.6883H229.384V59H201.621ZM245.808 59.6236C243.701 59.6236 241.823 59.2581 240.174 58.5269C238.525 57.7814 237.221 56.6846 236.26 55.2366C235.314 53.7743 234.841 51.9535 234.841 49.7744C234.841 47.9393 235.178 46.3981 235.851 45.1508C236.525 43.9035 237.443 42.9 238.604 42.1401C239.765 41.3803 241.084 40.8068 242.561 40.4197C244.052 40.0326 245.615 39.7602 247.249 39.6025C249.17 39.4018 250.718 39.2154 251.894 39.0434C253.07 38.857 253.923 38.5846 254.453 38.2262C254.984 37.8678 255.249 37.3373 255.249 36.6349V36.5058C255.249 35.1438 254.819 34.0901 253.959 33.3446C253.113 32.5991 251.908 32.2263 250.346 32.2263C248.697 32.2263 247.385 32.5919 246.41 33.3231C245.435 34.0399 244.79 34.9431 244.475 36.0327L236.002 35.3446C236.432 33.3374 237.278 31.6027 238.54 30.1404C239.801 28.6637 241.428 27.5311 243.421 26.7426C245.428 25.9397 247.751 25.5383 250.389 25.5383C252.224 25.5383 253.98 25.7533 255.657 26.1834C257.349 26.6135 258.847 27.2802 260.152 28.1834C261.471 29.0866 262.51 30.2479 263.27 31.6672C264.03 33.0722 264.41 34.7568 264.41 36.7209V59H255.722V54.4194H255.464C254.933 55.4517 254.224 56.3621 253.335 57.1506C252.446 57.9248 251.378 58.5341 250.131 58.9785C248.883 59.4086 247.443 59.6236 245.808 59.6236ZM248.432 53.3012C249.779 53.3012 250.969 53.036 252.002 52.5055C253.034 51.9607 253.844 51.2295 254.432 50.312C255.019 49.3945 255.313 48.355 255.313 47.1938V43.6885C255.027 43.8749 254.632 44.0469 254.131 44.2046C253.643 44.348 253.091 44.4842 252.475 44.6132C251.858 44.7279 251.242 44.8354 250.625 44.9358C250.009 45.0218 249.45 45.1006 248.948 45.1723C247.873 45.33 246.934 45.5809 246.131 45.925C245.328 46.2691 244.704 46.735 244.26 47.3228C243.815 47.8963 243.593 48.6131 243.593 49.4733C243.593 50.7206 244.045 51.674 244.948 52.3335C245.866 52.9786 247.027 53.3012 248.432 53.3012ZM280.678 14.9579V59H271.517V14.9579H280.678ZM297.178 14.9579V59H288.017V14.9579H297.178Z" fill="url(#paint4_linear_255_97)"/>
<defs>
<linearGradient id="paint0_linear_255_97" x1="31.5419" y1="25.0673" x2="14.5174" y2="25.3914" gradientUnits="userSpaceOnUse">
<stop offset="0.244792" stop-color="#FF5CEF"/>
<stop offset="1" stop-color="#780BE6"/>
</linearGradient>
<linearGradient id="paint1_linear_255_97" x1="48.0242" y1="42.3678" x2="31.6808" y2="42.679" gradientUnits="userSpaceOnUse">
<stop offset="0.244792" stop-color="#FF5CEF"/>
<stop offset="1" stop-color="#780BE6"/>
</linearGradient>
<linearGradient id="paint2_linear_255_97" x1="14.2974" y1="40.7269" x2="6.81353" y2="40.8218" gradientUnits="userSpaceOnUse">
<stop offset="0.244792" stop-color="#FF5CEF"/>
<stop offset="1" stop-color="#780BE6"/>
</linearGradient>
<linearGradient id="paint3_linear_255_97" x1="41.4739" y1="10.4268" x2="4.01851" y2="11.14" gradientUnits="userSpaceOnUse">
<stop offset="0.244792" stop-color="#FF5CEF"/>
<stop offset="1" stop-color="#780BE6"/>
</linearGradient>
<linearGradient id="paint4_linear_255_97" x1="432.5" y1="-9.49997" x2="84.642" y2="26.9709" gradientUnits="userSpaceOnUse">
<stop offset="0.244792" stop-color="#FF5CEF"/>
<stop offset="1" stop-color="#780BE6"/>
</linearGradient>
</defs>
</svg>
